# xmcd
#
# Track frame offsets: 
#        150
#        11320
#        25532
#        37813
#        50887
#        63128
#        74159
#        84112
#        96442
#        116215
#        129759
#        141417
#        153457
#        166835
#        181316
#        194327
#        208095
#        222623
#
# Disc length: 3145 seconds
#
# Revision: 0
# Processed by: cddbd v1.5.2PL0 Copyright (c) Steve Scherf et al.
# Submitted via: ExactAudioCopy v1.1
#
DISCID=fe0c4712
DTITLE=John Lee Hooker - 18 Greatest
DYEAR=2006
DGENRE=Blues
TTITLE0=Boom Boom
TTITLE1=Boogie Chillen'
TTITLE2=Im In The Mood
TTITLE3=Hobo Blues (Live)
TTITLE4=Crawin' Kingsnake
TTITLE5=No Shoes
TTITLE6=Dimples
TTITLE7=Burning Hell
TTITLE8=House Rent Boogie
TTITLE9=Too Much Boogie
TTITLE10=Queen Bee
TTITLE11=Wiskey And Wimmen
TTITLE12=Nightmare Blues
TTITLE13=Sally Mae
TTITLE14=Rock House Boogie
TTITLE15=Tease Me Baby
TTITLE16=Women In My Life
TTITLE17=She Was In Chicago
EXTD=
EXTT0=
EXTT1=
EXTT2=
EXTT3=
EXTT4=
EXTT5=
EXTT6=
EXTT7=
EXTT8=
EXTT9=
EXTT10=
EXTT11=
EXTT12=
EXTT13=
EXTT14=
EXTT15=
EXTT16=
EXTT17=
PLAYORDER=
